<svg width="30" height="24" viewBox="0 0 30 24" fill="none" xmlns="http://www.w3.org/2000/svg">
<path fill-rule="evenodd" clip-rule="evenodd" d="M10.3125 8.4375C11.0584 8.4375 11.7738 8.14118 12.3012 7.61374C12.8287 7.08629 13.125 6.37092 13.125 5.625C13.125 4.87908 12.8287 4.16371 12.3012 3.63626C11.7738 3.10882 11.0584 2.8125 10.3125 2.8125C9.56658 2.8125 8.85121 3.10882 8.32376 3.63626C7.79632 4.16371 7.5 4.87908 7.5 5.625C7.5 6.37092 7.79632 7.08629 8.32376 7.61374C8.85121 8.14118 9.56658 8.4375 10.3125 8.4375ZM10.3125 11.25C11.8043 11.25 13.2351 10.6574 14.29 9.60248C15.3449 8.54758 15.9375 7.11684 15.9375 5.625C15.9375 4.13316 15.3449 2.70242 14.29 1.64752C13.2351 0.592632 11.8043 0 10.3125 0C8.82066 0 7.38992 0.592632 6.33502 1.64752C5.28013 2.70242 4.6875 4.13316 4.6875 5.625C4.6875 7.11684 5.28013 8.54758 6.33502 9.60248C7.38992 10.6574 8.82066 11.25 10.3125 11.25ZM4.63312 16.6613C3.17625 17.6738 2.8125 18.6544 2.8125 19.11C2.8125 19.9463 3.49125 20.625 4.3275 20.625H16.2975C16.699 20.624 17.0838 20.4641 17.3677 20.1802C17.6516 19.8963 17.8115 19.5115 17.8125 19.11C17.8125 18.6525 17.4488 17.6719 15.9919 16.6613C14.61 15.7031 12.5981 15 10.3125 15C8.02688 15 6.015 15.7031 4.63312 16.6613ZM0 19.11C0 15.6488 4.64062 12.1875 10.3125 12.1875C12.525 12.1875 14.5838 12.7144 16.2694 13.5638C17.8835 12.6513 19.7083 12.1768 21.5625 12.1875C26.2031 12.1875 30 15.0713 30 17.9569C30 18.9131 29.6201 19.8303 28.9439 20.5064C28.2678 21.1826 27.3506 21.5625 26.3944 21.5625H19.8637C19.0837 22.695 17.7769 23.4375 16.2975 23.4375H4.3275C3.18008 23.4365 2.07994 22.9803 1.26859 22.1689C0.457244 21.3576 0.000993008 20.2574 0 19.11ZM20.6081 18.75H26.3944C26.8331 18.75 27.1875 18.3938 27.1875 17.9569C27.1875 17.7638 27.0075 17.0719 25.8975 16.2881C24.8588 15.5513 23.3194 15 21.5625 15C20.5931 15 19.6894 15.1688 18.9 15.4425C19.8862 16.4438 20.5013 17.5913 20.6081 18.75ZM23.4375 6.5625C23.4375 7.05978 23.24 7.53669 22.8883 7.88833C22.5367 8.23996 22.0598 8.4375 21.5625 8.4375C21.0652 8.4375 20.5883 8.23996 20.2367 7.88833C19.885 7.53669 19.6875 7.05978 19.6875 6.5625C19.6875 6.06522 19.885 5.58831 20.2367 5.23668C20.5883 4.88504 21.0652 4.6875 21.5625 4.6875C22.0598 4.6875 22.5367 4.88504 22.8883 5.23668C23.24 5.58831 23.4375 6.06522 23.4375 6.5625ZM26.25 6.5625C26.25 7.8057 25.7561 8.99799 24.8771 9.87706C23.998 10.7561 22.8057 11.25 21.5625 11.25C20.3193 11.25 19.127 10.7561 18.2479 9.87706C17.3689 8.99799 16.875 7.8057 16.875 6.5625C16.875 5.3193 17.3689 4.12701 18.2479 3.24794C19.127 2.36886 20.3193 1.875 21.5625 1.875C22.8057 1.875 23.998 2.36886 24.8771 3.24794C25.7561 4.12701 26.25 5.3193 26.25 6.5625Z" fill="black"/>
</svg>
