<svg width="30" height="25" viewBox="0 0 30 25" fill="none" xmlns="http://www.w3.org/2000/svg">
<path d="M0 1.38897C0 1.0206 0.148149 0.667309 0.411855 0.406829C0.675562 0.146349 1.03322 1.30206e-05 1.40616 1.30206e-05H9.38004C11.6805 1.30206e-05 13.7241 1.09266 15.0047 2.77978C15.6589 1.9151 16.5088 1.21345 17.4863 0.730812C18.4639 0.248177 19.5421 -0.00207995 20.635 1.30206e-05H28.5938C28.9668 1.30206e-05 29.3244 0.146349 29.5881 0.406829C29.8519 0.667309 30 1.0206 30 1.38897V20.8344C30 21.2027 29.8519 21.556 29.5881 21.8165C29.3244 22.077 28.9668 22.2233 28.5938 22.2233H20.1437C19.5898 22.2233 19.0412 22.3311 18.5294 22.5405C18.0176 22.7499 17.5525 23.0568 17.1608 23.4437L15.9946 24.5938C15.731 24.8539 15.3736 25 15.0009 25C14.6283 25 14.2709 24.8539 14.0073 24.5938L12.8411 23.4437C12.4493 23.0568 11.9843 22.7499 11.4725 22.5405C10.9607 22.3311 10.4121 22.2233 9.85813 22.2233H1.40616C1.03322 22.2233 0.675562 22.077 0.411855 21.8165C0.148149 21.556 0 21.2027 0 20.8344L0 1.38897ZM13.5948 20.5084L13.6023 11.1135L13.5985 6.94109C13.5975 5.83661 13.1526 4.7777 12.3616 3.99706C11.5706 3.21642 10.4982 2.77792 9.38004 2.77793H2.81232V19.4454H9.85626C11.1788 19.4454 12.4746 19.8138 13.5948 20.5084ZM16.4146 6.94479L16.4071 20.5047C17.5266 19.8121 18.8209 19.4449 20.1419 19.4454H27.1858V2.77793H20.6331C19.5143 2.77793 18.4413 3.21693 17.6502 3.99837C16.859 4.77981 16.4146 5.83967 16.4146 6.94479Z" fill="black"/>
</svg>
