<svg width="30" height="30" viewBox="0 0 30 30" fill="none" xmlns="http://www.w3.org/2000/svg">
<g clip-path="url(#clip0_177_105)">
<path d="M16.6168 0C17.0578 0 17.4523 0.2745 17.6008 0.6855L18.6598 3.621C19.0388 3.715 19.3658 3.811 19.6408 3.909C19.9408 4.016 20.3308 4.181 20.8108 4.404L23.2768 3.099C23.478 2.99187 23.7085 2.9531 23.9337 2.98855C24.1588 3.024 24.3663 3.13174 24.5248 3.2955L26.6938 5.538C26.9818 5.8365 27.0628 6.273 26.9008 6.654L25.7443 9.3645C25.9353 9.7165 26.0893 10.0185 26.2063 10.2705C26.3323 10.5435 26.4883 10.9235 26.6743 11.4105L29.3698 12.5655C29.7748 12.738 30.0253 13.143 29.9983 13.5765L29.8003 16.689C29.7868 16.8912 29.7142 17.085 29.5915 17.2463C29.4689 17.4076 29.3015 17.5294 29.1103 17.5965L26.5573 18.504C26.4843 18.856 26.4073 19.159 26.3263 19.413C26.1952 19.8067 26.0461 20.1941 25.8793 20.574L27.1618 23.409C27.2531 23.6081 27.2778 23.8312 27.2324 24.0454C27.1871 24.2596 27.0739 24.4535 26.9098 24.5985L24.4708 26.7765C24.3105 26.9199 24.11 27.0106 23.8965 27.0364C23.6829 27.0621 23.4666 27.0217 23.2768 26.9205L20.7628 25.5885C20.3699 25.7976 19.9641 25.9814 19.5478 26.139L18.4498 26.55L17.4748 29.25C17.4019 29.4473 17.2713 29.6181 17.1002 29.7403C16.929 29.8625 16.7251 29.9305 16.5148 29.9355L13.6648 30C13.4489 30.005 13.2367 29.9433 13.0571 29.8233C12.8775 29.7033 12.7393 29.5309 12.6613 29.3295L11.5123 26.289C11.1204 26.1547 10.7322 26.0097 10.3483 25.854C10.0344 25.7181 9.72522 25.5715 9.42132 25.4145L6.57132 26.6325C6.3836 26.713 6.17648 26.737 5.97533 26.7016C5.77418 26.6661 5.58773 26.5728 5.43882 26.433L3.32982 24.4545C3.17221 24.3082 3.06487 24.1159 3.02311 23.905C2.98136 23.694 3.00733 23.4753 3.09732 23.28L4.32282 20.61C4.16041 20.2935 4.00932 19.9713 3.86982 19.644C3.70733 19.2432 3.55726 18.8375 3.41982 18.4275L0.734819 17.61C0.51657 17.544 0.32621 17.4078 0.193303 17.2226C0.0603965 17.0373 -0.00761937 16.8134 -0.000181218 16.5855L0.104819 13.704C0.112619 13.5161 0.171482 13.3338 0.275081 13.1768C0.37868 13.0199 0.5231 12.8941 0.692819 12.813L3.50982 11.46C3.63982 10.982 3.75482 10.608 3.85482 10.338C3.99635 9.97538 4.15349 9.61904 4.32582 9.27L3.10482 6.69C3.01145 6.49422 2.98293 6.27377 3.02339 6.06068C3.06385 5.84758 3.17119 5.65293 3.32982 5.505L5.43582 3.516C5.58325 3.37643 5.76799 3.28259 5.96766 3.24585C6.16732 3.20912 6.37336 3.23105 6.56082 3.309L9.40782 4.485C9.72182 4.276 10.0078 4.104 10.2658 3.969C10.5728 3.807 10.9848 3.634 11.5018 3.45L12.4918 0.6885C12.5658 0.486888 12.6997 0.312791 12.8757 0.189682C13.0516 0.0665723 13.2611 0.000369914 13.4758 0L16.6168 0ZM15.8818 2.0655H14.2123L13.3048 4.6065C13.2508 4.75428 13.1642 4.88803 13.0515 4.99785C12.9389 5.10768 12.8029 5.19078 12.6538 5.241C11.9998 5.4585 11.5273 5.646 11.2513 5.7915C10.9573 5.9465 10.5873 6.1815 10.1413 6.4965C9.99618 6.59887 9.82743 6.66276 9.65088 6.68217C9.47433 6.70158 9.29574 6.67589 9.13182 6.6075L6.38682 5.475L5.31732 6.486L6.43182 8.841C6.49854 8.98112 6.53241 9.13461 6.53085 9.28979C6.52929 9.44497 6.49234 9.59775 6.42282 9.7365C6.12282 10.338 5.92032 10.782 5.81832 11.055C5.66124 11.5092 5.52608 11.9708 5.41332 12.438C5.37563 12.5842 5.30643 12.7203 5.21055 12.8369C5.11468 12.9536 4.99446 13.0478 4.85832 13.113L2.17332 14.4015L2.11932 15.8715L4.54932 16.6095C4.87182 16.707 5.12682 16.9545 5.23332 17.2725C5.47432 17.9945 5.66432 18.5225 5.80332 18.8565C5.98617 19.2791 6.18839 19.693 6.40932 20.097C6.48406 20.236 6.52554 20.3904 6.53049 20.5481C6.53543 20.7059 6.50371 20.8626 6.43782 21.006L5.31132 23.463L6.37782 24.465L9.05082 23.322C9.19472 23.2602 9.35064 23.2313 9.50715 23.2375C9.66365 23.2438 9.81678 23.2849 9.95532 23.358C10.5053 23.646 10.9098 23.845 11.1688 23.955C11.4313 24.0645 11.9338 24.2475 12.6628 24.4965C12.8072 24.5466 12.9389 24.6275 13.0488 24.7337C13.1586 24.84 13.2439 24.9689 13.2988 25.1115L14.3608 27.918L15.7498 27.888L16.6453 25.407C16.6972 25.2658 16.7789 25.1374 16.8847 25.0306C16.9906 24.9237 17.1182 24.8408 17.2588 24.7875L18.8143 24.2055C19.2083 24.0605 19.6838 23.8305 20.2408 23.5155C20.3947 23.4286 20.568 23.3819 20.7448 23.3798C20.9215 23.3777 21.0959 23.4202 21.2518 23.5035L23.6173 24.756L24.9478 23.5695L23.7838 21C23.7239 20.8681 23.6928 20.725 23.6926 20.5802C23.6923 20.4353 23.7229 20.2921 23.7823 20.16C24.0553 19.5495 24.2398 19.089 24.3328 18.795C24.4258 18.505 24.5183 18.0925 24.6103 17.5575C24.6418 17.3761 24.7211 17.2064 24.84 17.0659C24.9589 16.9253 25.1131 16.8191 25.2868 16.758L27.7588 15.8805L27.8668 14.1705L25.4368 13.1295C25.3078 13.0738 25.1913 12.9928 25.0942 12.8913C24.997 12.7898 24.9212 12.6698 24.8713 12.5385C24.6984 12.0602 24.5093 11.588 24.3043 11.1225C24.1106 10.7171 23.9004 10.3198 23.6743 9.9315C23.5958 9.7944 23.5501 9.64093 23.541 9.48318C23.5319 9.32544 23.5596 9.16773 23.6218 9.0225L24.7093 6.4725L23.5633 5.2875L21.3313 6.4695C21.1857 6.54713 21.0239 6.58935 20.8589 6.59273C20.6939 6.59612 20.5305 6.56058 20.3818 6.489C19.9083 6.25284 19.4238 6.0396 18.9298 5.85C18.509 5.70793 18.0797 5.5927 17.6443 5.505C17.472 5.4676 17.3118 5.3874 17.1786 5.27179C17.0455 5.15618 16.9436 5.00888 16.8823 4.8435L15.8818 2.0655ZM15.0358 8.4615C18.6883 8.4615 21.6508 11.391 21.6508 15.003C21.6508 18.615 18.6883 21.543 15.0358 21.543C11.3833 21.543 8.42082 18.615 8.42082 15.003C8.42082 11.391 11.3818 8.463 15.0358 8.463M15.0358 10.53C12.5353 10.53 10.5088 12.5325 10.5088 15.0045C10.5088 17.4765 12.5353 19.4805 15.0358 19.4805C17.5363 19.4805 19.5613 17.4765 19.5613 15.0045C19.5613 12.5325 17.5363 10.53 15.0358 10.53Z" fill="black"/>
</g>
<defs>
<clipPath id="clip0_177_105">
<rect width="30" height="30" fill="white"/>
</clipPath>
</defs>
</svg>
